<svg width="107" height="107" viewBox="0 0 107 107" fill="none" xmlns="http://www.w3.org/2000/svg">
<path fill-rule="evenodd" clip-rule="evenodd" d="M53.5001 8.91663C32.2366 8.91663 19.7372 24.7677 18.034 40.8169C12.7347 42.5952 8.91675 47.6017 8.91675 53.5V62.4166C8.91675 69.8034 14.9049 75.7916 22.2917 75.7916C29.6786 75.7916 35.6667 69.8034 35.6667 62.4166V53.5C35.6667 48.2272 32.6157 43.6671 28.1827 41.4888C29.3603 29.9785 37.1443 17.8333 53.5001 17.8333C69.8559 17.8333 77.6399 29.9785 78.8174 41.4888C74.3845 43.6671 71.3334 48.2272 71.3334 53.5V62.4166C71.3334 66.3779 73.0554 69.9369 75.7917 72.3859V78.5574C75.7917 84.4167 71.0419 89.1666 65.1826 89.1666H62.4167C59.9545 89.1666 57.9584 91.1627 57.9584 93.625C57.9584 96.0872 59.9545 98.0833 62.4167 98.0833H65.1826C75.9664 98.0833 84.7084 89.3413 84.7084 78.5574V75.7916C92.0952 75.7916 98.0834 69.8034 98.0834 62.4166V53.5C98.0834 47.6017 94.2655 42.5952 88.9662 40.8169C87.2629 24.7677 74.7636 8.91663 53.5001 8.91663ZM26.7501 53.5C26.7501 51.0377 24.754 49.0416 22.2917 49.0416C19.8295 49.0416 17.8334 51.0377 17.8334 53.5V62.4166C17.8334 64.8789 19.8295 66.875 22.2917 66.875C24.754 66.875 26.7501 64.8789 26.7501 62.4166V53.5ZM84.7084 49.0416C87.1707 49.0416 89.1667 51.0377 89.1667 53.5V62.4166C89.1667 64.8789 87.1707 66.875 84.7084 66.875C82.2461 66.875 80.2501 64.8789 80.2501 62.4166V53.5C80.2501 51.0377 82.2461 49.0416 84.7084 49.0416Z" fill="black"/>
</svg>
