<svg width="877" height="806" viewBox="0 0 877 806" fill="none" xmlns="http://www.w3.org/2000/svg">
<path d="M401.95 133.268C308.552 206.701 232.416 268.196 233.34 270.366C233.957 272.899 263.24 319.924 298.688 375.27C334.136 430.978 364.036 478.004 365.269 480.536C366.502 483.068 314.717 565.906 237.348 684.918C165.835 794.886 83.2258 922.217 53.6344 968.158L0 1051.36L284.509 1052.44C440.789 1052.8 569.326 1052.44 570.251 1051.36C571.484 1049.91 681.527 485.238 686.151 455.938L688 442.915L586.588 327.883L484.867 213.212L526.48 115.181C565.935 22.9379 574.875 0.510132 573.025 0.510132C572.409 0.510132 495.656 60.1968 401.95 133.268Z" fill="black"/>
<path d="M728.606 183.365C699.302 252.56 694.366 265.964 698.068 269.587C720.895 290.599 842.122 422.469 842.122 426.091C842.122 430.077 788.757 635.126 775.801 680.049L771.483 695.627H859.396H947V632.953C947 598.174 946.075 525.718 944.841 471.376L942.99 372.837L854.152 297.845L765.314 222.853L764.388 161.99L763.463 101.49L728.606 183.365Z" fill="black"/>
</svg>
