<svg width="671" height="1038" viewBox="0 0 671 1038" fill="none" xmlns="http://www.w3.org/2000/svg">
<path d="M278.982 159.153C370.072 247.174 444.327 320.886 443.425 323.488C442.824 326.523 414.264 382.891 379.692 449.232C345.12 516.007 315.959 572.375 314.757 575.41C313.554 578.445 364.06 677.74 439.517 820.394C509.263 952.209 589.831 1104.84 618.691 1159.9L671 1259.63L393.521 1260.93C241.103 1261.37 115.742 1260.93 114.84 1259.63C113.637 1257.9 6.31317 581.047 1.80377 545.925L0 530.315L98.9064 392.43L198.113 254.979L157.529 137.473C119.048 26.905 110.33 0.0218506 112.134 0.0218506C112.735 0.0218506 187.591 71.5659 278.982 159.153Z" fill="black"/>
</svg>
