<svg width="107" height="107" viewBox="0 0 107 107" fill="none" xmlns="http://www.w3.org/2000/svg">
<path fill-rule="evenodd" clip-rule="evenodd" d="M8.91675 20.0625C8.91675 13.9068 13.9069 8.91669 20.0626 8.91669H31.2084C33.6707 8.91669 35.6667 10.9128 35.6667 13.375C35.6667 15.8373 33.6707 17.8334 31.2084 17.8334H20.0626C18.8314 17.8334 17.8334 18.8314 17.8334 20.0625V31.2084C17.8334 33.6706 15.8374 35.6667 13.3751 35.6667C10.9128 35.6667 8.91675 33.6706 8.91675 31.2084V20.0625ZM86.9376 8.91669C93.0933 8.91669 98.0834 13.9068 98.0834 20.0625V31.2084C98.0834 33.6706 96.0873 35.6667 93.6251 35.6667C91.1628 35.6667 89.1667 33.6706 89.1667 31.2084V20.0625C89.1667 18.8314 88.1687 17.8334 86.9376 17.8334H75.7917C73.3295 17.8334 71.3334 15.8373 71.3334 13.375C71.3334 10.9128 73.3295 8.91669 75.7917 8.91669H86.9376ZM8.91675 86.9375C8.91675 93.0932 13.9069 98.0833 20.0626 98.0833H31.2084C33.6707 98.0833 35.6667 96.0873 35.6667 93.625C35.6667 91.1628 33.6707 89.1667 31.2084 89.1667H20.0626C18.8314 89.1667 17.8334 88.1686 17.8334 86.9375V75.7917C17.8334 73.3294 15.8374 71.3334 13.3751 71.3334C10.9128 71.3334 8.91675 73.3294 8.91675 75.7917V86.9375ZM86.9376 98.0833C93.0933 98.0833 98.0834 93.0932 98.0834 86.9375V75.7917C98.0834 73.3294 96.0873 71.3334 93.6251 71.3334C91.1628 71.3334 89.1667 73.3294 89.1667 75.7917V86.9375C89.1667 88.1686 88.1687 89.1667 86.9376 89.1667H75.7917C73.3295 89.1667 71.3334 91.1628 71.3334 93.625C71.3334 96.0873 73.3295 98.0833 75.7917 98.0833H86.9376ZM35.6667 44.7109V40.125C35.6667 30.2759 43.651 22.2917 53.5001 22.2917C63.3492 22.2917 71.3334 30.2759 71.3334 40.125V44.7109C73.882 45.2614 75.7917 47.5287 75.7917 50.242V62.4167C75.7917 74.728 65.8114 84.7084 53.5001 84.7084C41.1887 84.7084 31.2084 74.728 31.2084 62.4167V50.242C31.2084 47.5287 33.1181 45.2614 35.6667 44.7109ZM62.4167 44.5834H44.5834V40.125C44.5834 35.2005 48.5755 31.2084 53.5001 31.2084C58.4246 31.2084 62.4167 35.2005 62.4167 40.125V44.5834ZM40.1251 53.5V62.4167C40.1251 69.8035 46.1133 75.7917 53.5001 75.7917C60.8869 75.7917 66.8751 69.8035 66.8751 62.4167V53.5H40.1251Z" fill="black"/>
</svg>
