<svg width="107" height="107" viewBox="0 0 107 107" fill="none" xmlns="http://www.w3.org/2000/svg">
<path fill-rule="evenodd" clip-rule="evenodd" d="M87.816 32.7699C93.7042 34.1438 98.0834 39.3357 98.0834 45.5306V80.5083C98.0834 87.7525 92.0952 93.625 84.7084 93.625L22.2918 93.625C14.9049 93.625 8.91675 87.7525 8.91675 80.5084L8.91675 54.2751L8.91675 45.5306C8.91675 38.2865 14.9049 32.414 22.2917 32.414H24.4158L64.7382 14.5423C71.4695 11.5588 79.3925 14.4916 82.4347 21.0929L84.5003 25.5751L87.3693 31.8004L87.816 32.7699ZM17.8334 58.6473L17.8334 80.5084C17.8334 82.9231 19.8295 84.8806 22.2918 84.8806L84.7084 84.8806C87.1707 84.8806 89.1667 82.923 89.1667 80.5083V58.6473H17.8334ZM89.1667 49.9028H17.8334V45.5306C17.8334 43.1159 19.8295 41.1584 22.2917 41.1584L84.7084 41.1584C87.1707 41.1584 89.1667 43.1159 89.1667 45.5306V49.9028ZM77.867 32.414L76.375 29.1764L74.3093 24.6942C73.2952 22.4938 70.6543 21.5162 68.4105 22.5107L46.0665 32.414L77.867 32.414ZM22.2918 71.7639C22.2918 69.3492 24.2878 67.3917 26.7501 67.3917H44.5834C47.0457 67.3917 49.0417 69.3492 49.0417 71.7639C49.0417 74.1786 47.0457 76.1361 44.5834 76.1361H26.7501C24.2878 76.1361 22.2918 74.1786 22.2918 71.7639Z" fill="black"/>
</svg>
